<mxfile host="app.diagrams.net" modified="2023-12-28T13:02:00.617Z" agent="Mozilla/5.0 (Windows NT 10.0; Win64; x64) AppleWebKit/537.36 (KHTML, like Gecko) Chrome/120.0.0.0 Safari/537.36 Edg/120.0.0.0" etag="SaBqTB979sUZsue9rl1p" version="22.1.15" type="github">
  <diagram name="第 1 页" id="TolLLNL327-OswfCwwQw">
    <mxGraphModel dx="1426" dy="751" grid="1" gridSize="10" guides="1" tooltips="1" connect="1" arrows="1" fold="1" page="1" pageScale="1" pageWidth="827" pageHeight="1169" math="0" shadow="0">
      <root>
        <mxCell id="0" />
        <mxCell id="1" parent="0" />
        <mxCell id="gEbQ6b_etQzZ47vhCl45-1" value="商品" style="html=1;whiteSpace=wrap;" vertex="1" parent="1">
          <mxGeometry x="310" y="230" width="50" height="30" as="geometry" />
        </mxCell>
        <mxCell id="gEbQ6b_etQzZ47vhCl45-2" value="商品類別" style="ellipse;whiteSpace=wrap;html=1;" vertex="1" parent="1">
          <mxGeometry x="200" y="180" width="70" height="30" as="geometry" />
        </mxCell>
        <mxCell id="gEbQ6b_etQzZ47vhCl45-3" value="單件成本" style="ellipse;whiteSpace=wrap;html=1;" vertex="1" parent="1">
          <mxGeometry x="300" y="150" width="70" height="30" as="geometry" />
        </mxCell>
        <mxCell id="gEbQ6b_etQzZ47vhCl45-4" value="銷售單價" style="ellipse;whiteSpace=wrap;html=1;" vertex="1" parent="1">
          <mxGeometry x="400" y="170" width="70" height="30" as="geometry" />
        </mxCell>
        <mxCell id="gEbQ6b_etQzZ47vhCl45-5" value="供貨商" style="ellipse;whiteSpace=wrap;html=1;" vertex="1" parent="1">
          <mxGeometry x="410" y="270" width="70" height="30" as="geometry" />
        </mxCell>
        <mxCell id="gEbQ6b_etQzZ47vhCl45-6" value="商品編號" style="ellipse;whiteSpace=wrap;html=1;" vertex="1" parent="1">
          <mxGeometry x="290" y="320" width="70" height="30" as="geometry" />
        </mxCell>
        <mxCell id="gEbQ6b_etQzZ47vhCl45-7" value="商品名稱" style="ellipse;whiteSpace=wrap;html=1;" vertex="1" parent="1">
          <mxGeometry x="180" y="270" width="70" height="30" as="geometry" />
        </mxCell>
        <mxCell id="gEbQ6b_etQzZ47vhCl45-8" value="" style="endArrow=none;html=1;rounded=0;exitX=0.5;exitY=0;exitDx=0;exitDy=0;entryX=0.5;entryY=1;entryDx=0;entryDy=0;" edge="1" parent="1" source="gEbQ6b_etQzZ47vhCl45-1" target="gEbQ6b_etQzZ47vhCl45-3">
          <mxGeometry relative="1" as="geometry">
            <mxPoint x="250" y="180" as="sourcePoint" />
            <mxPoint x="410" y="180" as="targetPoint" />
          </mxGeometry>
        </mxCell>
        <mxCell id="gEbQ6b_etQzZ47vhCl45-9" value="" style="endArrow=none;html=1;rounded=0;exitX=1;exitY=0;exitDx=0;exitDy=0;entryX=0.5;entryY=1;entryDx=0;entryDy=0;" edge="1" parent="1" source="gEbQ6b_etQzZ47vhCl45-1" target="gEbQ6b_etQzZ47vhCl45-4">
          <mxGeometry relative="1" as="geometry">
            <mxPoint x="250" y="180" as="sourcePoint" />
            <mxPoint x="410" y="180" as="targetPoint" />
          </mxGeometry>
        </mxCell>
        <mxCell id="gEbQ6b_etQzZ47vhCl45-10" value="" style="endArrow=none;html=1;rounded=0;exitX=1;exitY=0.5;exitDx=0;exitDy=0;entryX=0;entryY=0.5;entryDx=0;entryDy=0;" edge="1" parent="1" source="gEbQ6b_etQzZ47vhCl45-1" target="gEbQ6b_etQzZ47vhCl45-5">
          <mxGeometry relative="1" as="geometry">
            <mxPoint x="250" y="180" as="sourcePoint" />
            <mxPoint x="380" y="210" as="targetPoint" />
          </mxGeometry>
        </mxCell>
        <mxCell id="gEbQ6b_etQzZ47vhCl45-11" value="" style="endArrow=none;html=1;rounded=0;exitX=0.5;exitY=1;exitDx=0;exitDy=0;entryX=0.5;entryY=0;entryDx=0;entryDy=0;" edge="1" parent="1" source="gEbQ6b_etQzZ47vhCl45-1" target="gEbQ6b_etQzZ47vhCl45-6">
          <mxGeometry relative="1" as="geometry">
            <mxPoint x="345" y="270" as="sourcePoint" />
            <mxPoint x="350" y="330" as="targetPoint" />
          </mxGeometry>
        </mxCell>
        <mxCell id="gEbQ6b_etQzZ47vhCl45-12" value="" style="endArrow=none;html=1;rounded=0;exitX=0;exitY=1;exitDx=0;exitDy=0;entryX=1;entryY=0.5;entryDx=0;entryDy=0;" edge="1" parent="1" source="gEbQ6b_etQzZ47vhCl45-1" target="gEbQ6b_etQzZ47vhCl45-7">
          <mxGeometry relative="1" as="geometry">
            <mxPoint x="320" y="270" as="sourcePoint" />
            <mxPoint x="285" y="304" as="targetPoint" />
          </mxGeometry>
        </mxCell>
        <mxCell id="gEbQ6b_etQzZ47vhCl45-13" value="" style="endArrow=none;html=1;rounded=0;exitX=0;exitY=0;exitDx=0;exitDy=0;entryX=1;entryY=0.5;entryDx=0;entryDy=0;" edge="1" parent="1" source="gEbQ6b_etQzZ47vhCl45-1" target="gEbQ6b_etQzZ47vhCl45-2">
          <mxGeometry relative="1" as="geometry">
            <mxPoint x="320" y="255" as="sourcePoint" />
            <mxPoint x="250" y="255" as="targetPoint" />
          </mxGeometry>
        </mxCell>
      </root>
    </mxGraphModel>
  </diagram>
</mxfile>
